<svg width="320" height="200" viewBox="0 0 320 200" fill="none" xmlns="http://www.w3.org/2000/svg">
  <rect width="320" height="200" rx="12" fill="#FFF7EC"/>
  <rect x="30" y="36" width="260" height="128" rx="12" fill="#ffffff" stroke="#E27A00" stroke-width="2"/>
  <rect x="50" y="56" width="80" height="104" rx="10" fill="#FFF1DC" stroke="#E27A00" stroke-width="1.5"/>
  <rect x="140" y="48" width="90" height="120" rx="10" fill="#FFF1DC" stroke="#E27A00" stroke-width="1.5"/>
  <rect x="236" y="56" width="44" height="104" rx="10" fill="#FFF1DC" stroke="#E27A00" stroke-width="1.5"/>
  <rect x="59" y="70" width="60" height="14" rx="7" fill="#E27A00" opacity="0.15"/>
  <rect x="59" y="92" width="52" height="10" rx="5" fill="#FFD9A6"/>
  <rect x="59" y="112" width="52" height="10" rx="5" fill="#FFD9A6"/>
  <rect x="148" y="66" width="74" height="18" rx="5" fill="#FFE8C4" stroke="#E27A00" stroke-width="1"/>
  <path d="M148 96h74" stroke="#FFD9A6" stroke-width="3" stroke-linecap="round"/>
  <path d="M148 114h74" stroke="#FFD9A6" stroke-width="3" stroke-linecap="round"/>
  <path d="M148 132h74" stroke="#FFD9A6" stroke-width="3" stroke-linecap="round"/>
  <circle cx="258" cy="76" r="14" fill="#E27A00" opacity="0.2"/>
  <path d="M252 78l4 4 8-12" stroke="#E27A00" stroke-width="2.5" stroke-linecap="round" stroke-linejoin="round"/>
  <rect x="246" y="104" width="24" height="8" rx="4" fill="#FFD9A6"/>
  <rect x="246" y="120" width="20" height="8" rx="4" fill="#FFD9A6"/>
  <path d="M30 170h260" stroke="#F2C389" stroke-width="3" stroke-linecap="round"/>
</svg>
