<svg width="1200" height="700" viewBox="0 0 1200 700" xmlns="http://www.w3.org/2000/svg" role="img" aria-labelledby="title desc">
  <title id="title">Beyond STEM learning cards illustration</title>
  <desc id="desc">Colorful cards representing playful history flashcards for student engagement.</desc>
  <defs>
    <linearGradient id="bg" x1="0%" y1="0%" x2="100%" y2="100%">
      <stop offset="0%" stop-color="#eef2ff"/>
      <stop offset="100%" stop-color="#dbeafe"/>
    </linearGradient>
    <linearGradient id="card" x1="0%" y1="0%" x2="100%" y2="100%">
      <stop offset="0%" stop-color="#4f46e5" stop-opacity="0.9"/>
      <stop offset="100%" stop-color="#6366f1" stop-opacity="0.8"/>
    </linearGradient>
    <linearGradient id="card2" x1="0%" y1="0%" x2="100%" y2="100%">
      <stop offset="0%" stop-color="#f97316" stop-opacity="0.9"/>
      <stop offset="100%" stop-color="#fb923c" stop-opacity="0.8"/>
    </linearGradient>
    <linearGradient id="card3" x1="0%" y1="0%" x2="100%" y2="100%">
      <stop offset="0%" stop-color="#10b981" stop-opacity="0.9"/>
      <stop offset="100%" stop-color="#34d399" stop-opacity="0.8"/>
    </linearGradient>
  </defs>
  <rect width="1200" height="700" fill="url(#bg)" rx="32"/>
  <g transform="translate(180 120)">
    <rect x="-30" y="60" width="280" height="360" rx="24" fill="url(#card2)" opacity="0.75"/>
    <rect x="140" y="10" width="320" height="400" rx="28" fill="url(#card)"/>
    <rect x="360" y="90" width="280" height="340" rx="22" fill="url(#card3)" opacity="0.85"/>
    <g fill="#fefefe" opacity="0.95" transform="translate(170 60)">
      <rect x="40" y="30" width="180" height="18" rx="9"/>
      <rect x="20" y="70" width="220" height="12" rx="6" opacity="0.85"/>
      <rect x="20" y="100" width="190" height="12" rx="6" opacity="0.75"/>
      <rect x="20" y="130" width="210" height="12" rx="6" opacity="0.65"/>
      <rect x="30" y="190" width="60" height="60" rx="12" fill="#fde68a"/>
      <rect x="110" y="190" width="60" height="60" rx="12" fill="#c7d2fe"/>
      <rect x="190" y="190" width="60" height="60" rx="12" fill="#fbcfe8"/>
      <rect x="80" y="270" width="140" height="16" rx="8" opacity="0.9"/>
    </g>
  </g>
  <g transform="translate(780 120)" fill="#1e3a8a" opacity="0.7">
    <circle cx="48" cy="32" r="10"/>
    <circle cx="92" cy="80" r="8"/>
    <circle cx="60" cy="120" r="12"/>
    <circle cx="110" cy="150" r="10"/>
    <path d="M20 20h12v240H20z" opacity="0.25"/>
    <path d="M40 40h12v200H40z" opacity="0.2"/>
  </g>
  <text x="180" y="620" fill="#1e3a8a" font-family="'Inter', sans-serif" font-size="36" font-weight="700">Beyond STEM — playful history cards</text>
  <text x="180" y="660" fill="#334155" font-family="'Inter', sans-serif" font-size="22">Micro-lessons that make non-STEM stories stick through quick, joyful flashcards.</text>
</svg>
